<svg xmlns="http://www.w3.org/2000/svg" width="32.711" height="32.715" viewBox="0 0 32.711 32.715">
  <path id="Icon_awesome-check-double" data-name="Icon awesome-check-double" d="M32.262,11.167l-2.53-2.53a1.527,1.527,0,0,0-2.166,0l-15.3,15.3L5.149,16.815a1.527,1.527,0,0,0-2.166,0L.447,19.351a1.535,1.535,0,0,0,0,2.172L11.18,32.262a1.527,1.527,0,0,0,2.166,0l18.91-18.923A1.54,1.54,0,0,0,32.262,11.167ZM11.544,17.939a1.014,1.014,0,0,0,1.444,0l13.288-13.3a1.026,1.026,0,0,0,0-1.444L23.388.3a1.014,1.014,0,0,0-1.444,0L12.266,9.979,8.727,6.433a1.014,1.014,0,0,0-1.444,0L4.389,9.327a1.026,1.026,0,0,0,0,1.444Z" transform="translate(0.004 0.002)" fill="#17168c"/>
</svg>
